<?xml version="1.0" encoding="utf-8"?>
<svg viewBox="0 0 500 500" xmlns="http://www.w3.org/2000/svg" xmlns:bx="https://boxy-svg.com">
  <path d="M 298.086 135.0195 H 434.037 L 434.037 119.038 L 469.037 149.038 L 434.037 179.038 L 434.037 163.0565 H 298.086 V 135.0195 Z" style="fill: rgb(238, 171, 48);" transform="matrix(1, -0.000192, 0.000192, 1, 8.171269, 96.590569)" bx:shape="arrow 298.086 119.038 170.951 60 28.037 35 0 1@ee79c8ed"/>
  <line style="stroke-width: 5px; stroke: rgb(126, 126, 126);" x1="85.216" y1="47.541" x2="85.052" y2="477.478"/>
  <line style="stroke-width: 3px; stroke: rgb(121, 121, 121);" x1="85.05168151855467" y1="143.1665153503418" x2="164.07535100960064" y2="143.1665153503418"/>
  <line style="stroke: rgb(125, 125, 125); stroke-width: 3px;" x1="85.21633911132811" y1="224.2986297607422" x2="164.07534790039062" y2="224.2986297607422"/>
  <rect x="55.001" y="17.489" width="73.813" height="57.925" style="fill: rgb(216, 216, 216);"/>
  <rect x="126.187" y="111.201" width="73.813" height="57.925" style="fill: rgb(216, 216, 216);" bx:origin="0.641 1.457"/>
  <line style="stroke-width: 3px; stroke: rgb(126, 126, 126);" x1="164.07534790039062" y1="245.06845244328025" x2="164.07534790039062" y2="389.6990201748295"/>
  <rect x="128.814" y="193.599" width="73.813" height="57.925" style="fill: rgb(216, 216, 216);" bx:origin="0.641 1.457"/>
  <line style="stroke: rgb(114, 114, 114); stroke-width: 3px;" x1="164.07534790039062" y1="317.7690207279177" x2="212.67308141511091" y2="316.3902998006198"/>
  <rect x="200" y="285.464" width="73.813" height="57.925" style="fill: rgb(216, 216, 216);" bx:origin="0.641 1.457"/>
  <line style="stroke-width: 3px; stroke: rgb(118, 118, 118);" x1="164.07534790039062" y1="389.6990051269531" x2="224.44025386208557" y2="389.6990051269531"/>
  <rect x="200" y="356.774" width="73.813" height="57.925" style="fill: rgb(216, 216, 216);" bx:origin="0.641 1.457"/>
  <line style="stroke: rgb(0, 0, 0);" x1="85.21633911132811" y1="300" x2="85.21633911132811" y2="300"/>
  <line style="stroke-width: 3px; stroke: rgb(113, 113, 113);" x1="85.216" y1="477.478" x2="139.149" y2="477.478"/>
  <rect x="128.814" y="442.075" width="73.813" height="57.925" style="fill: rgb(216, 216, 216);" bx:origin="0.641 1.457"/>
</svg>