<?xml version="1.0" encoding="utf-8"?>
<svg viewBox="0 0 500 500" xmlns="http://www.w3.org/2000/svg" xmlns:bx="https://boxy-svg.com">
  <text style="fill: rgb(238, 171, 48); font-family: Arial, sans-serif; font-size: 150px; white-space: pre;" transform="matrix(1.724684, 0, 0, 1.620809, -125.009308, 50.349743)" x="62.308" y="256.69">URL</text>
  <path d="M 45.553 227.693 H 241.091 L 241.091 202.088 L 281.953 245.238 L 241.091 288.388 L 241.091 262.782 H 45.553 V 227.693 Z" style="fill: rgb(138, 138, 138);" transform="matrix(0.396443, 0.918059, -0.918059, 0.396443, 260.159424, -112.02272)" bx:shape="arrow 45.553 202.088 236.4 86.3 35.089 40.862 0 1@adbeead0"/>
  <path d="M 45.553 227.694 H 241.091 L 241.091 202.088 L 281.953 245.238 L 241.091 288.388 L 241.091 262.783 H 45.553 V 227.694 Z" style="fill: rgb(138, 138, 138);" transform="matrix(-0.479713, 0.877426, -0.877426, -0.479713, 661.078674, 117.217964)" bx:shape="arrow 45.553 202.088 236.4 86.3 35.089 40.862 0 1@9f54eb57"/>
  <path d="M 45.553 227.694 H 241.091 L 241.091 202.088 L 281.953 245.238 L 241.091 288.388 L 241.091 262.783 H 45.553 V 227.694 Z" style="fill: rgb(138, 138, 138);" transform="matrix(-0.000313, 1, -1, -0.000313, 474.885254, -35.548725)" bx:shape="arrow 45.553 202.088 236.4 86.3 35.089 40.862 0 1@9f54eb57"/>
</svg>